<?xml version="1.0" encoding="UTF-8" standalone="no"?>
<!-- Created with Inkscape (http://www.inkscape.org/) -->

<svg
   xmlns:dc="http://purl.org/dc/elements/1.1/"
   xmlns:cc="http://creativecommons.org/ns#"
   xmlns:rdf="http://www.w3.org/1999/02/22-rdf-syntax-ns#"
   xmlns:svg="http://www.w3.org/2000/svg"
   xmlns="http://www.w3.org/2000/svg"
   xmlns:xlink="http://www.w3.org/1999/xlink"
   xmlns:sodipodi="http://sodipodi.sourceforge.net/DTD/sodipodi-0.dtd"
   xmlns:inkscape="http://www.inkscape.org/namespaces/inkscape"
   version="1.1"
   id="svg64"
   width="1024"
   height="1024"
   viewBox="0 0 1024 1024"
   sodipodi:docname="IWW-OKC.svg"
   inkscape:version="0.92.4 (5da689c313, 2019-01-14)"
   inkscape:export-filename="/home/evan/Downloads/IWW-OKC.png"
   inkscape:export-xdpi="96"
   inkscape:export-ydpi="96">
  <metadata
     id="metadata70">
    <rdf:RDF>
      <cc:Work
         rdf:about="">
        <dc:format>image/svg+xml</dc:format>
        <dc:type
           rdf:resource="http://purl.org/dc/dcmitype/StillImage" />
        <dc:title />
      </cc:Work>
    </rdf:RDF>
  </metadata>
  <defs
     id="defs68" />
  <sodipodi:namedview
     pagecolor="#ffffff"
     bordercolor="#666666"
     borderopacity="1"
     objecttolerance="10"
     gridtolerance="10"
     guidetolerance="10"
     inkscape:pageopacity="0"
     inkscape:pageshadow="2"
     inkscape:window-width="1366"
     inkscape:window-height="704"
     id="namedview66"
     showgrid="false"
     inkscape:zoom="0.50195312"
     inkscape:cx="368.09563"
     inkscape:cy="687.87603"
     inkscape:window-x="0"
     inkscape:window-y="27"
     inkscape:window-maximized="1"
     inkscape:current-layer="layer6"
     showguides="false" />
  <g
     inkscape:groupmode="layer"
     id="layer6"
     inkscape:label="Logo"
     transform="translate(0,844)"
     style="display:inline">
    <circle
       style="display:inline;fill:#aa0000;stroke-width:4.1379652"
       id="path151"
       cx="-594.34985"
       cy="131.20685"
       r="359.91644"
       transform="rotate(159.68178)" />
    <circle
       style="display:inline;fill:#aa0000;stroke-width:4.67999887"
       id="path151-8"
       cx="-591.5083"
       cy="145.44121"
       r="407.06207"
       transform="matrix(-0.68393582,0.72954218,0.72954218,0.68393582,0,0)" />
    <path
       style="display:inline;fill:#666666;stroke-width:1.08407915"
       d="m 97.637833,-147.84113 c 0.0089,-0.48151 0.459772,-1.57581 1.00145,-2.43182 0.794183,-1.25506 1.300116,-1.29478 2.613167,-0.2052 0.89558,0.74329 2.36428,1.19972 3.26378,1.01438 0.8995,-0.18543 1.7894,0.15108 1.97756,0.74706 0.18821,0.59626 -1.73119,1.23412 -4.26522,1.41748 -2.534042,0.18308 -4.599868,-0.0607 -4.590737,-0.54209 z m 21.701047,-7.65088 c 0.0282,-6.59259 0.47421,-8.92689 2.07091,-10.84086 1.11916,-1.34148 2.5836,-2.43911 3.25431,-2.43911 0.67071,0 2.29994,-0.69585 3.6205,-1.54635 3.10182,-1.99765 13.57312,-4.62996 22.18549,-5.57713 l 6.77549,-0.74517 v -55.14799 -55.14802 h 20.05547 20.05546 v 5.42041 5.42039 h 18.97138 c 16.14074,0 18.97139,0.24238 18.97139,1.62612 0,0.89436 -0.48784,1.62612 -1.08409,1.62612 -0.67452,0 -1.08407,6.14308 -1.08407,16.26117 v 16.26118 h 8.13059 8.13059 v 3.79433 c 0,3.32444 0.33557,3.79424 2.7102,3.79424 h 2.7102 l 9.8e-4,-27.37299 c 0.001,-37.14791 3.4848,-143.42233 4.74235,-144.67987 0.65675,-0.65676 18.06093,-5.67257 19.81178,-5.70968 0.68607,-0.0146 1.68005,1.80295 2.20883,4.03886 0.90906,3.84388 1.19317,4.0653 5.21639,4.0653 4.02323,0 4.30735,-0.22144 5.2164,-4.0653 0.52878,-2.23591 1.54781,-4.06529 2.26451,-4.06529 1.81679,0 19.09493,5.07493 19.85047,5.83046 1.13177,1.13179 3.50119,69.91947 4.25214,123.446 l 0.74145,52.84883 h 10.12644 10.12643 l 0.0235,-7.85961 c 0.016,-5.22702 0.68194,-9.31193 1.98874,-12.19585 1.08071,-2.38498 2.88646,-11.0325 4.01276,-19.21677 1.12631,-8.18421 2.35205,-14.28214 2.72389,-13.55095 0.37181,0.73119 1.55406,7.67129 2.62719,15.42242 1.07314,7.75118 2.66939,15.52283 3.5472,17.27033 1.16013,2.30945 1.56433,6.67688 1.47992,15.99018 -0.0942,10.39337 0.17424,12.8129 1.4215,12.8129 0.84568,0 1.74903,-1.09768 2.00743,-2.43916 l 0.46979,-2.43925 0.14765,2.43925 c 0.17385,2.87178 3.04112,3.29362 3.68441,0.54195 0.26912,-1.15115 0.76704,-0.33651 1.26635,2.07295 l 0.8228,3.96998 7.21866,-0.0377 7.21866,-0.0377 -0.0381,-42.14758 -0.0381,-42.14751 h 7.89396 7.89397 v -4.33633 c 0,-4.00527 0.22761,-4.33712 2.98121,-4.34677 1.63968,-0.005 9.32311,-0.0546 17.07424,-0.10872 7.75122,-0.0541 14.9468,-0.0494 15.99022,0.009 1.47246,0.0847 1.89716,1.07961 1.89716,4.44523 v 4.33633 h 7.96725 7.96721 l -0.10778,48.7836 -0.10778,48.78361 5.14936,-5e-5 c 4.14892,-5e-5 5.16598,-0.36898 5.23474,-1.89726 0.0471,-1.04337 0.21744,-5.92969 0.37887,-10.85851 0.16143,-4.92877 0.62464,-9.29225 1.02906,-9.69663 1.68091,-1.68156 26.69243,-3.16823 26.69243,-1.5871 0,0.63805 2.56106,1.30749 5.69141,1.4877 l 5.6914,0.32757 0.16661,11.73042 c 0.0922,6.45178 0.38216,11.94565 0.6452,12.2087 0.26309,0.26356 0.82368,-12.0892 1.24585,-27.44951 0.42216,-15.36036 1.22941,-28.39136 1.79395,-28.95778 0.56449,-0.56642 1.02643,-2.11127 1.02643,-3.43293 0,-1.32166 0.47671,-2.56562 1.05942,-2.76437 0.58265,-0.19861 1.38647,-4.62992 1.78604,-9.84705 0.39958,-5.21712 1.14244,-9.48572 1.65079,-9.48572 0.50829,0 0.92411,-1.41513 0.92411,-3.1448 0,-3.01254 5.57063,-11.55021 12.18793,-18.67957 2.8955,-3.11962 3.63093,-8.11019 5.01161,-34.00569 l 0.69354,-13.00894 0.72493,15.03762 c 0.40005,8.29613 1.24914,15.56184 1.89425,16.207 0.64313,0.64313 1.16931,3.74802 1.16931,6.89978 0,5.33818 0.41747,6.2509 6.10059,13.33414 3.35531,4.1821 6.53846,7.60377 7.07359,7.60377 0.53521,0 1.27379,-1.50328 1.64123,-3.34058 0.63918,-3.19605 0.88429,-3.3307 5.66434,-3.11232 7.14883,0.32663 7.70636,0.17696 7.70636,-2.07046 0,-1.62796 1.10215,-2.14825 5.69145,-2.68695 3.13025,-0.36757 7.52075,-0.37087 9.75668,-0.009 3.88338,0.63108 4.06533,0.84828 4.06533,4.85511 0,2.30696 0.48778,4.19447 1.08408,4.19447 0.59622,0 1.08408,2.6831 1.08408,5.9624 0,4.57725 0.37793,5.96245 1.62613,5.96245 1.39833,0 1.62607,3.49317 1.62607,24.93381 0,21.37768 0.23109,24.93382 1.61695,24.93382 0.88937,0 2.22628,0.97569 2.97098,2.16817 0.7447,1.19247 2.19819,2.16816 3.22999,2.16816 1.66885,0 1.9093,1.58508 2.17837,14.36405 0.37134,17.61522 2.33421,19.53036 2.77831,2.7102 l 0.3078,-11.65389 h 5.92573 c 4.91169,0 5.92993,0.32427 5.94989,1.89716 0.0235,1.5375 0.4264,1.38337 2.14406,-0.81303 2.01398,-2.57476 2.1211,-4.67477 2.14407,-42.00808 l 0.0235,-39.29768 h 8.01459 c 6.1613,0 8.16045,-0.37981 8.64522,-1.64335 0.48311,-1.25892 1.63633,-1.48248 4.93042,-0.95573 2.36489,0.3784 5.80172,0.16378 7.63737,-0.47592 2.877,-1.00289 3.52013,-0.87102 4.66102,0.95579 1.11581,1.78675 2.55805,2.11921 9.19333,2.11921 h 7.87048 v 52.03575 c 0,51.31309 0.0329,52.03581 2.16812,52.03581 2.08791,0 2.16821,-0.72272 2.16821,-19.51347 v -19.51341 h 7.58852 7.58852 v -3.25225 c 0,-2.52943 0.48185,-3.25219 2.16816,-3.25219 2.13607,0 2.16821,-0.72272 2.16821,-48.78355 v -48.77587 h 3.18165 c 1.7499,0 4.43304,-0.47577 5.96245,-1.05725 1.5294,-0.58149 2.78094,-0.70345 2.78113,-0.27105 6.1e-4,1.21135 25.12137,1.68779 25.8913,0.49105 0.9491,-1.47517 5.54663,-2.76352 5.54663,-1.55432 0,0.55374 1.21958,0.77366 2.71016,0.48871 1.83513,-0.35077 2.71025,-1.23164 2.71025,-2.72788 0,-2.07321 0.12283,-2.09875 1.98508,-0.41332 1.0918,0.98809 2.31138,1.47022 2.7102,1.07143 0.39911,-0.39878 0.72508,-0.0963 0.72508,0.67241 0,1.12717 0.33321,1.12097 1.72251,-0.0325 1.48163,-1.22966 1.67111,-1.13455 1.35507,0.68032 -0.30968,1.77784 0.35769,2.16231 4.23994,2.44321 l 4.60737,0.33331 v 55.22581 55.22573 h 3.16188 c 1.73903,0 3.40793,-0.60982 3.70872,-1.35513 0.32663,-0.80955 0.5812,-0.59131 0.63236,0.54204 0.0711,1.56649 1.12484,1.89717 6.04806,1.89717 4.5772,0 5.9624,0.37746 5.9624,1.62607 0,0.89442 0.73175,1.62617 1.62612,1.62617 1.27864,0 1.62612,1.50564 1.62612,7.04648 0,6.32381 0.22214,7.04653 2.16816,7.04653 1.5985,0 2.16812,-0.72272 2.16812,-2.75086 v -2.75087 l 10.02773,0.31156 c 9.46418,0.29416 10.04726,0.449 10.37421,2.75087 0.31063,2.18746 0.95367,2.43911 6.23345,2.43911 h 5.887 v -7.51416 -7.51411 l 10.02773,-0.34545 c 5.51524,-0.18967 11.61323,-0.1925 13.55101,-0.004 l 3.52325,0.33981 v 17.27659 17.27658 h 5.35494 5.35498 l 0.33651,-4.06528 c 0.30969,-3.74237 0.59485,-4.05841 3.58876,-3.97896 1.78873,0.0475 3.58094,-0.40899 3.98273,-1.01443 0.89469,-1.34821 13.22006,-0.92707 13.72388,0.46876 0.19908,0.55061 1.78421,1.00125 3.52329,1.00125 2.89084,-2.8e-4 3.16188,0.32474 3.16188,3.794 v 3.79433 h 5.98927 c 5.39099,0 6.09216,0.27062 7.01966,2.71016 0.56675,1.49062 1.53034,2.71016 2.14133,2.71016 0.70559,0 1.11091,5.5374 1.11091,15.17713 0,12.76806 0.25838,15.17709 1.62612,15.17709 0.89432,0 1.62613,-0.73171 1.62613,-1.62607 0,-1.20457 1.26476,-1.62612 4.87831,-1.62612 3.61366,0 4.87842,0.42169 4.87842,1.62612 0,0.98783 1.00807,1.62607 2.56835,1.62607 2.12566,0 2.68408,0.70065 3.24029,4.06533 0.36992,2.23594 0.6773,4.67505 0.68389,5.42036 0.009,1.08168 -80.38425,1.35513 -398.38716,1.35513 H 119.30281 Z"
       id="path114"
       inkscape:connector-curvature="0" />
    <path
       style="display:inline;fill:#333333;stroke-width:1.08407915"
       d="m 98.707831,-148.80684 c 0,-1.91439 2.333759,-1.58104 3.003799,0.42923 0.23598,0.70803 -0.34329,1.28735 -1.28734,1.28735 -0.944052,0 -1.716459,-0.77238 -1.716459,-1.71644 z m 4.336319,0.74837 c 0,-0.53249 0.73175,-1.24895 1.62611,-1.5921 0.99054,-0.38028 1.62613,-0.002 1.62613,0.96807 0,0.87564 -0.73176,1.5921 -1.62613,1.5921 -0.89436,0 -1.62611,-0.43582 -1.62611,-0.96807 z m 16.98158,-7.97553 c 0.6522,-8.93899 2.27707,-12.73798 5.4482,-12.73798 0.82294,0 2.58271,-0.71185 3.91062,-1.58202 3.47201,-2.27496 14.52142,-4.53955 29.48967,-6.04411 l 13.00895,-1.30764 -0.32446,-16.04825 c -0.32409,-16.02881 -0.32145,-16.04858 2.16816,-16.40161 1.92822,-0.27345 2.56956,-1.1512 2.83234,-3.8767 0.25504,-2.64516 0.86294,-3.52328 2.43918,-3.52328 1.61002,0 2.09947,-0.75816 2.09947,-3.2522 0,-2.49404 0.48945,-3.25224 2.09947,-3.25224 1.57624,0 2.18414,-0.87804 2.43918,-3.52324 0.28309,-2.93579 0.83681,-3.58048 3.32092,-3.8663 2.6068,-0.2998 2.98122,-0.81049 2.98122,-4.06528 v -3.72228 h 28.7281 28.72809 v 3.79424 c 0,3.25869 0.35915,3.79433 2.54468,3.79433 h 2.54468 l 0.76114,-43.6342 c 0.41864,-23.99878 1.46333,-61.6841 2.32159,-83.74511 0.85824,-22.06101 1.56587,-41.35903 1.57252,-42.8845 0.0113,-2.56104 0.77215,-2.99435 9.93147,-5.65485 5.45566,-1.58472 10.31511,-2.63672 10.7988,-2.33778 0.48369,0.29895 1.19653,2.23382 1.5841,4.29976 0.67355,3.59034 0.90948,3.75625 5.34174,3.75625 4.43225,0 4.66818,-0.1659 5.34173,-3.75625 0.38758,-2.06594 1.10041,-4.00083 1.5841,-4.29976 0.48368,-0.29896 5.28455,0.73604 10.66858,2.29995 l 9.78918,2.84346 0.7037,14.73627 c 3.08538,64.61109 4.61581,159.48339 3.38115,209.59949 l -0.82124,33.33543 h -99.03478 -99.03479 z m 203.08648,-14.36415 c 0,-17.91055 0.31378,-23.31321 1.3551,-23.33175 0.7453,-0.0141 2.53924,-0.93432 3.98654,-2.04683 2.39575,-1.84154 2.62322,-2.76169 2.53955,-10.27275 -0.0505,-4.53743 0.33359,-8.51286 0.85352,-8.83427 1.30725,-0.80791 25.8355,-0.7807 35.60756,0.0424 6.03029,0.50618 8.24973,0.32004 8.92704,-0.74776 0.5639,-0.88923 0.90766,-0.96082 0.91805,-0.19108 0.0216,1.59859 14.09581,0.56454 15.82284,-1.16249 0.67214,-0.67213 1.58453,-3.63907 2.02751,-6.59306 0.98711,-6.58248 2.83963,-10.31261 6.7901,-13.67207 4.2367,-3.60283 6.85089,-7.99323 6.8483,-11.50131 -0.004,-5.43881 1.25403,-13.29061 2.12957,-13.29061 0.80922,0 1.37706,2.74715 2.85954,13.83462 0.48453,3.62354 1.7644,5.80968 5.93458,10.13626 2.92421,3.03401 5.60311,6.809 5.95304,8.38895 0.35016,1.58 0.92825,3.84841 1.28528,5.04092 0.35675,1.19243 0.54176,2.92204 0.4104,3.84347 -0.13084,0.92133 0.65227,2.61339 1.74087,3.75998 1.68269,1.77235 1.91274,3.47603 1.53528,11.37113 -0.50509,10.56426 -0.11672,11.2435 7.11638,12.43639 l 4.60732,0.75995 v -4.97362 -4.97368 h 13.00893 13.00897 v 4.20991 c 0,3.64542 0.36899,4.28042 2.74856,4.73534 1.96089,0.3751 3.06917,-0.0734 3.86724,-1.56465 0.76738,-1.43396 2.03167,-1.98466 4.02687,-1.75419 2.41605,0.27909 2.96666,0.94345 3.25291,3.92461 0.25697,2.67942 0.80654,3.50055 2.16821,3.24113 1.00289,-0.19108 1.97943,-1.44007 2.16995,-2.77552 0.26826,-1.88357 1.0589,-2.4281 3.52324,-2.4281 2.70145,0 3.17684,-0.42358 3.17684,-2.82881 0,-2.57014 0.33181,-2.79007 3.62994,-2.40499 l 3.62989,0.42405 0.74762,-27.66516 c 0.41134,-15.21587 1.21689,-28.13448 1.79047,-28.70806 0.57357,-0.57357 1.0429,-2.16491 1.0429,-3.53627 0,-1.37137 0.45134,-2.49338 1.0027,-2.49338 0.55146,0 1.34383,-4.3616 1.76092,-9.69244 0.52185,-6.67094 1.22311,-9.87085 2.24953,-10.26473 0.86877,-0.33322 1.49133,-2.14073 1.49133,-4.32955 0,-2.95522 1.37264,-5.4846 6.43018,-11.84903 3.53656,-4.45041 6.98454,-8.43431 7.66208,-8.85305 0.70051,-0.43299 1.16033,-3.16912 1.06596,-6.34333 -0.0913,-3.07011 -0.0471,-6.06985 0.10213,-6.66606 0.14778,-0.59626 0.31157,-2.65698 0.36334,-4.57932 0.13743,-5.06352 2.20153,-4.87112 2.60657,0.24285 0.18873,2.38494 0.79873,4.79972 1.35517,5.36619 0.55635,0.56642 1.01155,3.39419 1.01155,6.28389 0,4.73737 0.61302,6.04801 6.23345,13.32808 6.243,8.08641 8.94365,9.90023 8.94365,6.00673 0,-4.40626 0.88236,-4.98087 7.05684,-4.59565 5.43551,0.33934 5.95214,0.17461 5.95214,-1.89716 0,-1.68538 0.68352,-2.26846 2.65923,-2.26846 1.46258,0 3.93788,-0.58261 5.5007,-1.2947 2.20247,-1.00355 3.30769,-1.00355 4.91465,0 1.14023,0.71209 2.98751,1.2947 4.10496,1.2947 1.64161,0 2.16317,1.09312 2.71552,5.6914 0.37558,3.13025 0.68785,7.49656 0.69302,9.70284 0.009,2.28531 0.66004,4.38448 1.52136,4.87837 1.24034,0.71119 1.65535,9.87457 2.3103,51.00555 l 0.79835,50.13869 h 2.56812 c 1.55995,0 2.56802,0.63829 2.56802,1.62608 0,0.89436 0.92764,1.62617 2.06133,1.62617 1.80242,0 2.05624,-0.82132 2.02052,-6.53758 -0.0235,-3.59558 0.22967,-6.80748 0.55926,-7.13759 0.32945,-0.32993 2.7063,-0.8827 5.28035,-1.22796 2.57404,-0.34545 5.26994,-1.21751 5.99078,-1.93835 1.45796,-1.45796 7.17219,-0.81257 6.23476,0.70418 -0.32616,0.52811 -0.0767,0.96011 0.55475,0.96011 0.79298,0 1.14804,-17.09797 1.14804,-55.288 v -55.29138 h 8.58228 c 4.72028,0 8.7449,-0.4537 8.94365,-1.00831 0.57583,-1.60668 16.37361,-1.90672 16.90214,-0.32098 0.29651,0.89041 3.09788,1.32934 8.48336,1.32934 h 8.04044 v 78.05365 78.05376 H 493.85463 323.11221 Z m 345.82127,-22.22357 v -45.53132 h 7.58852 c 7.37175,0 7.58853,-0.0772 7.58853,-2.71021 0,-1.98748 0.57823,-2.7102 2.16816,-2.7102 2.13635,0 2.16816,-0.72272 2.16816,-49.21428 v -49.21431 l 22.49467,-0.64539 c 12.37205,-0.35496 23.63639,-0.69783 25.03185,-0.76191 1.93609,-0.0889 2.40951,-0.60487 1.99826,-2.17761 -0.2965,-1.13359 -0.0965,-1.78769 0.44382,-1.45356 0.54063,0.33411 0.98294,1.31977 0.98294,2.19031 0,1.14698 0.74625,1.3955 2.71025,0.90257 1.66989,-0.41911 2.71016,-0.21899 2.71016,0.52139 0,0.67885 1.88365,1.2016 4.32978,1.2016 h 4.32983 l 0.27721,85.91326 0.27721,85.91323 5.14931,-4.74536 c 4.18723,-3.85877 5.14941,-5.42855 5.14941,-8.40161 0,-2.52726 0.50213,-3.6562 1.62613,-3.6562 1.35507,0 1.62612,-2.16821 1.62612,-13.00893 v -13.00897 h 7.04653 c 6.3238,0 7.04648,-0.22215 7.04648,-2.16821 0,-2.00749 0.72267,-2.16816 9.75673,-2.16816 9.03401,0 9.75673,0.16049 9.75673,2.16816 0,2.25918 1.32077,2.53686 11.11181,2.33613 l 4.06523,-0.0833 v 13.93153 13.93149 l 10.84086,9.99525 10.84082,9.99521 v -8.79191 c 0,-8.06915 0.1779,-8.79187 2.16811,-8.79187 1.19252,0 2.16812,-0.48782 2.16812,-1.08413 0,-0.59621 1.01014,-1.08403 2.24469,-1.08403 1.23459,0 4.55889,-1.95134 7.38737,-4.33628 2.9467,-2.48481 6.27006,-4.33143 7.78304,-4.32484 1.45222,0.009 5.07956,1.95251 8.06076,4.32484 5.01316,3.98918 5.93148,4.31411 12.22305,4.32475 6.6878,0.0141 6.81356,0.0668 7.45307,3.26377 0.43629,2.18087 1.29888,3.25225 2.61909,3.25225 3.0028,0 3.54649,1.77127 3.63826,11.85208 0.0838,9.18801 0.11484,9.29099 2.92402,9.61681 2.11032,0.24427 2.98906,-0.24238 3.42172,-1.89716 0.46782,-1.7885 1.45519,-2.22648 5.02003,-2.22648 3.71512,0 4.43784,0.35298 4.43784,2.16816 0,1.58998 0.72268,2.16817 2.71021,2.16817 2.48938,0 2.71015,0.39769 2.71015,4.87836 v 4.87837 H 791.97558 668.93259 Z"
       id="path97"
       inkscape:connector-curvature="0" />
    <path
       style="display:inline;fill:#000000;stroke-width:1.08407915"
       d="m 98.707478,-148.11052 c 0,-0.56106 0.487837,-1.32157 1.084082,-1.69009 0.59624,-0.36851 1.08408,0.0908 1.08408,1.02008 0,0.92952 -0.48784,1.69013 -1.08408,1.69013 -0.596245,0 -1.084082,-0.45935 -1.084082,-1.02012 z m 4.336312,0.594 c 0,-0.23439 0.73176,-0.70682 1.62612,-1.04996 0.89437,-0.3431 1.62612,-0.15155 1.62612,0.4264 0,0.57748 -0.73175,1.05001 -1.62612,1.05001 -0.89436,0 -1.62612,-0.19156 -1.62612,-0.42641 z m 17.25986,-0.92906 c -0.35839,-5.68617 0.45606,-15.67253 1.36775,-16.77102 1.35102,-1.62791 6.41238,-4.28177 12.26865,-6.43295 17.62185,-6.47309 78.82419,-6.11211 98.27403,0.5796 10.69262,3.67884 10.67592,3.6561 10.67592,14.52092 v 9.53327 l -47.09361,-0.11672 c -34.94404,-0.0866 -47.24991,-0.44617 -47.69948,-1.39245 -0.45332,-0.95437 -0.76509,-0.93441 -1.23826,0.0795 -0.45398,0.97292 -4.27608,1.35517 -13.55098,1.35517 -9.56662,0 -12.94077,-0.3511 -13.00402,-1.35517 z m 136.13321,-11.9248 c -1.87892,-32.63873 0.96951,-222.97122 3.57906,-239.15367 l 0.76138,-4.72154 8.1306,-2.58148 c 4.47183,-1.41981 8.72081,-2.588 9.44218,-2.59599 0.72137,-0.008 1.89621,1.93682 2.61077,4.3218 1.24665,4.16097 1.48258,4.33632 5.83435,4.33632 4.35178,0 4.5877,-0.17536 5.83436,-4.33632 0.71456,-2.38498 1.93499,-4.33631 2.71208,-4.33631 0.77709,0 4.24872,0.97567 7.71475,2.16815 3.46603,1.19249 7.20116,2.16816 8.3003,2.16816 1.09916,0 2.02544,0.12195 2.05844,0.27105 0.0329,0.1491 0.77906,14.66217 1.65794,32.25135 1.8946,37.91685 3.25316,168.36278 2.10282,201.90971 l -0.80852,23.57875 h -29.58301 -29.58301 z m 78.23692,12.42482 c -0.24134,-0.42452 -0.52894,-8.07056 -0.63904,-16.99223 -0.11013,-8.92171 -0.58038,-16.72706 -1.04509,-17.34525 -0.46472,-0.61824 -0.2317,-3.07538 0.51776,-5.46032 0.74948,-2.38503 1.40018,-3.48262 1.44601,-2.43925 0.0763,1.73663 1.80887,1.89716 20.47639,1.89716 18.89463,0 20.56409,-0.15907 22.72034,-2.16811 1.45756,-1.358 3.86336,-2.18106 6.43787,-2.20261 7.04099,-0.0593 8.0436,-1.63145 7.67962,-12.04341 -0.23805,-6.81064 0.0849,-9.53906 1.30004,-10.98313 0.88924,-1.05674 2.21028,-5.2034 2.93566,-9.21465 1.15523,-6.38847 1.86245,-7.78224 5.70072,-11.23483 2.41005,-2.16793 4.38186,-4.4851 4.38186,-5.14941 0,-0.66432 0.48782,-1.20782 1.08413,-1.20782 0.59626,0 1.09151,-1.82934 1.10064,-4.06528 0.009,-2.23589 0.44241,-4.73759 0.96289,-5.55929 1.63982,-2.58892 3.35683,-0.18779 3.35683,4.69425 0,3.17628 0.52679,4.90053 1.62612,5.32237 0.89436,0.34357 1.62612,1.2554 1.62612,2.02711 0,0.77167 1.09764,1.88455 2.43921,2.47319 3.0814,1.35183 7.00581,9.03787 7.9504,15.57059 0.39863,2.75708 1.2512,5.67155 1.89481,6.47649 0.68813,0.86076 1.04215,5.16334 0.85954,10.44684 -0.28757,8.32705 -0.12802,9.1111 2.1867,10.73237 1.37334,0.96195 4.58374,1.74906 7.13421,1.74906 3.24086,0 4.63711,0.45464 4.63711,1.5101 0,2.5107 2.61184,2.82617 23.39637,2.82617 18.26419,0 19.97329,-0.1619 20.04318,-1.89716 0.0471,-1.04337 0.76498,-0.0188 1.60664,2.27584 1.06125,2.89399 1.204,4.78264 0.46546,6.16219 -0.58553,1.09406 -1.06459,9.34803 -1.06459,18.34208 v 16.35281 l -76.38961,-0.0626 c -42.01428,-0.0376 -76.5871,-0.40899 -76.82848,-0.83346 z m 166.35174,-42.47619 c 0.22968,-23.86254 0.7832,-43.38838 1.23036,-43.39073 0.44711,-0.002 0.81313,-4.08279 0.81313,-9.06766 0,-12.3049 1.01876,-19.12269 2.85747,-19.12269 1.44219,0 1.58494,-1.19346 1.71032,-14.29981 0.0235,-2.36615 0.64761,-4.23489 1.5295,-4.57333 0.86029,-0.33039 1.49123,-2.12905 1.49123,-4.25189 0,-2.80005 1.49011,-5.65244 6.23345,-11.93224 3.4284,-4.53894 6.84326,-8.2646 7.58857,-8.27924 0.87248,-0.0188 1.35512,-1.70745 1.35512,-4.74597 0,-7.58151 1.31752,-18.04633 2.27208,-18.04633 0.48359,0 0.88684,2.07333 0.89625,4.60733 0.033,7.91227 1.31856,18.15833 2.28498,18.15833 0.50843,0 3.25379,3.04898 6.10067,6.77549 2.84697,3.72651 5.55864,6.93809 6.02584,7.13684 0.46735,0.19862 0.84952,2.51602 0.84952,5.14941 0,3.30115 0.45558,4.78801 1.46619,4.78801 1.06432,0 1.66491,2.58618 2.19146,9.43611 0.4024,5.22857 1.2866,9.78304 1.9841,10.2141 0.79529,0.49154 1.42803,5.49882 1.71865,13.60053 0.2532,7.05246 0.8956,13.28609 1.42813,13.85251 0.53254,0.56642 0.96821,15.07953 0.96821,32.25135 0,30.45358 0.0532,31.22478 2.16812,31.35698 1.19247,0.0744 2.656,0.25745 3.25226,0.40617 0.59626,0.14919 4.25505,0.3318 8.13061,0.40664 l 7.04648,0.13554 v 3.9207 c 0,3.53689 0.23862,3.85674 2.43921,3.26702 1.34152,-0.35957 3.04892,-0.66031 3.79424,-0.66845 0.74531,-0.009 1.35512,-0.74659 1.35512,-1.6409 0,-0.9034 0.96364,-1.62613 2.16816,-1.62613 1.19247,0 2.16821,0.70145 2.16821,1.55873 0,1.69987 -0.20473,1.67107 12.73793,1.79221 l 8.9436,0.0838 v 8.093 8.09296 l -5.6914,-0.21744 c -3.13025,-0.11954 -6.30121,-0.69114 -7.04653,-1.27036 -0.74531,-0.57922 -1.36256,-0.62756 -1.37169,-0.10731 -0.009,0.52016 -0.45511,0.25321 -0.99085,-0.59338 -1.35281,-2.13753 -6.78922,-2.23354 -7.34181,-0.12943 -0.60939,2.31994 -6.82786,2.70728 -6.82786,0.42546 0,-1.12319 -0.5973,-1.46925 -1.76351,-1.02172 -0.96995,0.37228 -2.45817,0.10025 -3.30716,-0.6044 -1.23987,-1.02902 -1.65968,-0.83685 -2.13404,0.97706 -0.58229,2.22666 -1.08154,2.25979 -35.86612,2.37407 l -35.27552,0.11577 0.41699,-43.3865 z m 113.13578,42.20547 c -0.38263,-0.61922 -0.43158,-14.8884 -0.10919,-31.70935 0.3224,-16.82086 0.60709,-51.19449 0.63189,-76.3858 l 0.0471,-45.8023 h 8.1306 c 6.50449,0 8.13057,-0.32522 8.13057,-1.62612 0,-1.30091 1.62617,-1.62613 8.13061,-1.62613 6.50449,0 8.13061,0.32522 8.13061,1.62613 0,1.3009 1.62612,1.62612 8.13061,1.62612 h 8.13056 l 0.0424,42.00806 c 0.0235,23.10443 0.31203,57.98466 0.64389,77.51163 l 0.60374,35.50364 h -24.97171 c -16.09621,0 -25.21904,-0.40052 -25.66761,-1.12588 z m 54.79694,-43.81639 0.0188,-44.94216 7.8391,-0.31816 c 7.55407,-0.30686 7.839,-0.41652 7.839,-3.02831 0,-2.40904 0.54208,-2.77035 4.87836,-3.2522 2.6831,-0.29792 9.14697,-0.38404 14.36406,-0.19108 l 9.48573,0.35063 v 3.17256 3.17262 h 7.58852 7.58852 v 43.36315 c 0,30.11331 0.35487,43.36316 1.16155,43.36316 0.63881,0 0.4297,0.73181 -0.46452,1.62612 -1.36534,1.36534 -6.3319,1.62612 -30.96913,1.62612 h -29.34342 l 0.0188,-44.94216 z m 79.3837,28.32223 c 13.81538,-13.35655 17.07421,-17.07021 17.07421,-19.45699 0,-2.88265 0.14826,-2.94985 6.50449,-2.94985 6.05436,0 6.50444,0.17178 6.50444,2.47991 0,1.53609 2.03055,4.47992 5.33484,7.73457 l 5.33485,5.2546 2.56035,-2.04312 c 7.71409,-6.15583 14.95603,-14.05305 14.95603,-16.30946 0,-3.0412 3.11397,-4.93333 5.7194,-3.47523 1.02808,0.57536 1.86917,2.16552 1.86917,3.53373 0,1.80313 4.92237,7.19107 17.88729,19.57931 13.36822,12.77351 17.88734,17.74605 17.88734,19.6821 v 2.59047 l -59.35333,-0.0565 -59.35338,-0.0565 17.0743,-16.50718 z m 115.39847,15.80695 c -0.77934,-1.39306 0.51206,-8.94365 1.52959,-8.94365 0.53103,0 0.96548,-4.63443 0.96548,-10.29877 v -10.29877 h 13.00897 13.00893 l 0.1186,3.52329 c 0.0654,1.93778 0.10308,6.35482 0.0842,9.81556 -0.033,5.78986 0.18967,6.37774 2.77845,7.36181 3.36275,1.27851 5.69116,0.58492 5.69116,-1.69526 0,-2.70083 7.18434,-2.23904 7.90273,0.50802 0.3831,1.46511 1.47867,2.16821 3.37866,2.16821 2.55258,0 2.81167,0.39534 2.81167,4.29043 v 4.29039 l -15.71918,-0.009 c -9.18193,-0.004 -15.71908,-0.43723 -15.71908,-1.03824 0,-0.56557 -0.93503,-1.02836 -2.07785,-1.02836 -1.14277,0 -2.33105,-0.60976 -2.64055,-1.35507 -0.38969,-0.9388 -1.22028,-0.60577 -2.70323,1.08408 -1.62848,1.8556 -3.31569,2.43916 -7.05223,2.43916 -2.70135,0 -5.11627,-0.36569 -5.36652,-0.81304 z m -534.12408,-1.29107 c 0,-0.5611 0.48784,-1.32166 1.08408,-1.69013 0.59624,-0.36851 1.08407,0.0908 1.08407,1.02008 0,0.92956 -0.48783,1.69008 -1.08407,1.69008 -0.59624,0 -1.08408,-0.45888 -1.08408,-1.02003 z m 57.95366,-54.34013 c -0.39304,-0.63593 -0.48207,-1.38868 -0.19796,-1.67285 0.28418,-0.28427 0.80553,0.23626 1.15861,1.15623 0.73303,1.91025 0.1083,2.24624 -0.96071,0.51662 z"
       id="path78"
       inkscape:connector-curvature="0" />
    <path
       style="display:inline;fill:none;stroke:#000000;stroke-width:4.45632887;stroke-linecap:butt;stroke-linejoin:bevel;stroke-miterlimit:4;stroke-dasharray:none;stroke-opacity:1"
       d="m 609.18829,-95.940204 -23.72624,-39.221916 -0.57866,39.243801 -25.46231,-35.953481 1.15741,35.953481 -23.14755,-32.663121 -0.57869,34.842061 -23.73785,-33.774451 0.56704,32.64114 -22.54556,-30.46215 0.57869,30.484035 -23.14753,-27.237435 -0.57869,29.416517 -24.30492,-26.147947 v 23.99075 l -21.99015,-20.70038 -0.0118,20.70038"
       id="path5523"
       inkscape:connector-curvature="0"
       sodipodi:nodetypes="ccccccccccccccccc" />
    <path
       style="display:inline;fill:none;stroke:#000000;stroke-width:4.45632887;stroke-linecap:butt;stroke-linejoin:bevel;stroke-miterlimit:4;stroke-dasharray:none;stroke-opacity:1"
       d="m 185.00977,-103.54482 23.72621,10.894982 -0.57868,-11.984522 22.56884,12.006407 V -105.7239 l 23.14753,13.095947 0.57869,-13.095947 26.04098,13.095947 v -14.185397 l 23.15916,14.185397 0.57869,-14.185397"
       id="path5525"
       inkscape:connector-curvature="0"
       sodipodi:nodetypes="ccccccccccc" />
    <path
       style="display:inline;fill:none;stroke:#000000;stroke-width:4.45632887;stroke-linecap:butt;stroke-linejoin:bevel;stroke-miterlimit:4;stroke-dasharray:none;stroke-opacity:1"
       d="m 303.6525,-92.627953 22.55721,-18.543417 -0.57869,16.34245 25.46229,-17.43185 0.56706,17.43185 22.00179,-19.61093 0.57869,21.790012 23.14752,-21.790012 0.56706,20.678586 23.73785,-21.768036"
       id="path5527"
       inkscape:connector-curvature="0"
       sodipodi:nodetypes="cccccccccc" />
    <path
       style="display:inline;fill:#1a1a1a;stroke:#000000;stroke-width:3.24777937;stroke-linecap:round;stroke-linejoin:round;stroke-miterlimit:4;stroke-dasharray:none;stroke-opacity:1"
       d="m 91.034835,-113.2174 16.781965,10.41638 20.2541,0.57866 78.12292,-10.99504 74.65078,-24.88361 46.87376,41.08689 11.57376,1.736065 -34.7213,-45.137725 76.38686,-141.77862 -20.25409,20.83277 -62.49833,98.95572 -14.46721,-100.11308 -2.89345,30.0918 -1.73606,87.96063 -153.3524,34.72129 z"
       id="path5529"
       inkscape:connector-curvature="0" />
    <circle
       style="display:inline;opacity:1;vector-effect:none;fill:none;fill-opacity:1;stroke:#000001;stroke-width:100.95361328;stroke-linecap:round;stroke-linejoin:round;stroke-miterlimit:4;stroke-dasharray:none;stroke-dashoffset:0;stroke-opacity:1"
       id="path851"
       cx="512.69263"
       cy="-333.24515"
       r="393.02515" />
    <path
       style="display:inline;fill:none;stroke:#000000;stroke-width:4.45632887;stroke-linecap:butt;stroke-linejoin:miter;stroke-miterlimit:4;stroke-dasharray:none;stroke-opacity:1"
       d="m 185.00977,-91.560392 619.77519,-1.089446 v -32.685002 l -196.75403,-13.07388 -192.70321,22.87942 -230.31795,11.98448 z"
       id="path4976"
       inkscape:connector-curvature="0" />
    <path
       style="display:inline;fill:none;stroke:#000000;stroke-width:4.45632887;stroke-linecap:butt;stroke-linejoin:bevel;stroke-miterlimit:4;stroke-dasharray:none;stroke-opacity:1"
       d="m 804.78496,-125.33484 -24.88361,31.595461 -0.5787,-31.595461 -23.14754,32.685002 -1.73607,-33.774452 -24.3049,32.684911 -1.15736,-34.842061 -22.56884,34.842061 -0.5787,-38.132421 -24.3049,38.110536 0.57865,-40.289526 -25.46226,39.22187 v -39.22187 l -21.99018,39.199985 -1.73606,-41.378925 -23.7262,40.289526 -1.15736,-42.468516"
       id="path5521"
       inkscape:connector-curvature="0"
       sodipodi:nodetypes="ccccccccccccccccc" />
    <circle
       style="display:inline;fill:none;stroke:#000000;stroke-width:75.30303192;stroke-miterlimit:4;stroke-dasharray:none;stroke-opacity:1"
       id="path151-6"
       cx="511.46277"
       cy="-333.03354"
       r="0" />
    <text
       xml:space="preserve"
       style="font-style:normal;font-variant:normal;font-weight:normal;font-stretch:normal;font-size:150.60606384px;line-height:1.25;font-family:sans-serif;-inkscape-font-specification:'sans-serif, Normal';font-variant-ligatures:normal;font-variant-caps:normal;font-variant-numeric:normal;font-feature-settings:normal;text-align:start;letter-spacing:0px;word-spacing:0px;writing-mode:lr-tb;text-anchor:start;fill:#000000;fill-opacity:1;stroke:none;stroke-width:4.7064395"
       x="484.65466"
       y="-537.8512"
       id="text4721"><tspan
         sodipodi:role="line"
         id="tspan4719"
         x="484.65466"
         y="-537.8512"
         style="font-style:normal;font-variant:normal;font-weight:bold;font-stretch:normal;font-size:150.60606384px;font-family:sans-serif;-inkscape-font-specification:'sans-serif, Bold';font-variant-ligatures:normal;font-variant-caps:normal;font-variant-numeric:normal;font-feature-settings:normal;text-align:start;writing-mode:lr-tb;text-anchor:start;stroke-width:4.7064395">I</tspan></text>
    <text
       xml:space="preserve"
       style="font-style:normal;font-weight:normal;font-size:188.25758362px;line-height:1.25;font-family:sans-serif;letter-spacing:0px;word-spacing:0px;fill:#000000;fill-opacity:1;stroke:none;stroke-width:4.7064395"
       x="305.57642"
       y="-405.69476"
       id="text4725"><tspan
         sodipodi:role="line"
         id="tspan4723"
         x="305.57642"
         y="-405.69476"
         style="font-style:normal;font-variant:normal;font-weight:bold;font-stretch:normal;font-size:150.60606384px;font-family:sans-serif;-inkscape-font-specification:'sans-serif, Bold';font-variant-ligatures:normal;font-variant-caps:normal;font-variant-numeric:normal;font-feature-settings:normal;text-align:start;writing-mode:lr-tb;text-anchor:start;stroke-width:4.7064395">W</tspan></text>
    <text
       xml:space="preserve"
       style="font-style:normal;font-weight:normal;font-size:188.25758362px;line-height:1.25;font-family:sans-serif;letter-spacing:0px;word-spacing:0px;fill:#000000;fill-opacity:1;stroke:none;stroke-width:4.7064395"
       x="550.31128"
       y="-405.69479"
       id="text4725-6"><tspan
         sodipodi:role="line"
         id="tspan4723-7"
         x="550.31128"
         y="-405.69479"
         style="font-style:normal;font-variant:normal;font-weight:bold;font-stretch:normal;font-size:150.60606384px;font-family:sans-serif;-inkscape-font-specification:'sans-serif, Bold';font-variant-ligatures:normal;font-variant-caps:normal;font-variant-numeric:normal;font-feature-settings:normal;text-align:start;writing-mode:lr-tb;text-anchor:start;stroke-width:4.7064395">W</tspan></text>
    <path
       sodipodi:type="star"
       style="fill:#000000;stroke:#000000;stroke-width:21.18404388;stroke-miterlimit:4;stroke-dasharray:none;stroke-opacity:1"
       id="path4745"
       sodipodi:sides="5"
       sodipodi:cx="510.58838"
       sodipodi:cy="-460.02716"
       sodipodi:r1="9.0806484"
       sodipodi:r2="4.5403237"
       sodipodi:arg1="-1.5707963"
       sodipodi:arg2="-0.9424778"
       inkscape:flatsided="false"
       inkscape:rounded="0"
       inkscape:randomized="0"
       d="m 510.58838,-469.10781 2.66873,5.40745 5.96748,0.86712 -4.31811,4.20912 1.01937,5.94336 -5.33747,-2.80608 -5.33747,2.80608 1.01936,-5.94336 -4.3181,-4.20912 5.96747,-0.86712 z"
       inkscape:transform-center-y="-0.86713045"
       inkscape:transform-center-x="-3.0565493e-05" />
    <path
       sodipodi:type="star"
       style="fill:#000000;stroke:#000000;stroke-width:21.18404388;stroke-miterlimit:4;stroke-dasharray:none;stroke-opacity:1"
       id="path4745-3"
       sodipodi:sides="5"
       sodipodi:cx="435.28534"
       sodipodi:cy="-591.80756"
       sodipodi:r1="9.0806484"
       sodipodi:r2="4.5403237"
       sodipodi:arg1="-1.5707963"
       sodipodi:arg2="-0.9424778"
       inkscape:flatsided="false"
       inkscape:rounded="0"
       inkscape:randomized="0"
       d="m 435.28534,-600.8882 2.66873,5.40744 5.96748,0.86713 -4.31811,4.20911 1.01937,5.94336 -5.33747,-2.80607 -5.33747,2.80607 1.01936,-5.94336 -4.3181,-4.20911 5.96747,-0.86713 z"
       inkscape:transform-center-y="-0.86716921"
       inkscape:transform-center-x="-2.4314952e-05" />
    <path
       sodipodi:type="star"
       style="fill:#000000;stroke:#000000;stroke-width:21.18404388;stroke-miterlimit:4;stroke-dasharray:none;stroke-opacity:1"
       id="path4745-3-6"
       sodipodi:sides="5"
       sodipodi:cx="585.89142"
       sodipodi:cy="-591.80756"
       sodipodi:r1="9.0806484"
       sodipodi:r2="4.5403237"
       sodipodi:arg1="-1.5707963"
       sodipodi:arg2="-0.9424778"
       inkscape:flatsided="false"
       inkscape:rounded="0"
       inkscape:randomized="0"
       d="m 585.89142,-600.8882 2.66873,5.40744 5.96748,0.86713 -4.31811,4.20911 1.01937,5.94336 -5.33747,-2.80607 -5.33747,2.80607 1.01936,-5.94336 -4.3181,-4.20911 5.96747,-0.86713 z"
       inkscape:transform-center-y="-0.86716921"
       inkscape:transform-center-x="-3.6816034e-05" />
    <circle
       style="fill:#ffffff;stroke:none;stroke-width:22.71044159;stroke-miterlimit:4;stroke-dasharray:none;stroke-opacity:1"
       id="path4779"
       cx="193.68985"
       cy="-120.15831"
       r="21.847967" />
    <circle
       style="fill:#ffffff;stroke:none;stroke-width:22.71044159;stroke-miterlimit:4;stroke-dasharray:none;stroke-opacity:1"
       id="path4779-5"
       cx="828.30408"
       cy="-120.15831"
       r="21.847967" />
    <text
       xml:space="preserve"
       style="font-style:normal;font-variant:normal;font-weight:bold;font-stretch:normal;font-size:64px;line-height:1.25;font-family:sans-serif;-inkscape-font-specification:'sans-serif, Bold';font-variant-ligatures:normal;font-variant-caps:normal;font-variant-numeric:normal;font-feature-settings:normal;text-align:start;letter-spacing:0px;word-spacing:0px;writing-mode:lr-tb;text-anchor:start;fill:#ffffff;fill-opacity:1;stroke:none"
       id="text4804"
       y="2.3999939"><textPath
         xlink:href="#path151"
         id="textPath4812"
         style="font-style:normal;font-variant:normal;font-weight:bold;font-stretch:normal;font-size:64px;font-family:sans-serif;-inkscape-font-specification:'sans-serif, Bold';font-variant-ligatures:normal;font-variant-caps:normal;font-variant-numeric:normal;font-feature-settings:normal;text-align:start;writing-mode:lr-tb;text-anchor:start">INDUSTRIAL WORKERS OF THE WORLD</textPath></text>
    <text
       xml:space="preserve"
       style="font-style:normal;font-variant:normal;font-weight:bold;font-stretch:normal;font-size:64px;line-height:1.25;font-family:sans-serif;-inkscape-font-specification:'sans-serif, Bold';font-variant-ligatures:normal;font-variant-caps:normal;font-variant-numeric:normal;font-feature-settings:normal;text-align:start;letter-spacing:0px;word-spacing:0px;writing-mode:lr-tb;text-anchor:start;fill:#000000;fill-opacity:1;stroke:none"
       id="text4835"
       transform="translate(0,-2)"><textPath
         xlink:href="#path151-8"
         id="textPath4865"><tspan
   style="font-style:normal;font-variant:normal;font-weight:bold;font-stretch:normal;font-size:64px;font-family:sans-serif;-inkscape-font-specification:'sans-serif, Bold';font-variant-ligatures:normal;font-variant-caps:normal;font-variant-numeric:normal;font-feature-settings:normal;text-align:start;writing-mode:lr-tb;text-anchor:start;fill:#ffffff"
   id="tspan4833">OKLAHOMA CITY</tspan></textPath></text>
    <circle
       style="display:inline;fill:none;stroke:#ffffff;stroke-width:92.55753326;stroke-miterlimit:4;stroke-dasharray:none;stroke-opacity:1"
       id="path151-6-5"
       cx="511.45502"
       cy="-333.04132"
       r="471.42862" />
  </g>
</svg>
